<svg width="160.12922363281248px" height="107px" xmlns="http://www.w3.org/2000/svg" viewBox="169.93538818359377 21.5 160.12922363281248 107" style="background: rgb(255, 255, 255);" preserveAspectRatio="xMidYMid"><defs><filter id="editing-hover" x="-100%" y="-100%" width="300%" height="300%"><feFlood flood-color="#eceef0" result="flood"></feFlood><feComposite operator="in" in2="SourceAlpha" in="flood" result="shadow"></feComposite><feOffset dx="-4" dy="-4" in="SourceGraphic" result="offset-1"></feOffset><feOffset dx="4" dy="4" in="shadow" result="offset-2"></feOffset><feMerge><feMergeNode in="offset-2"></feMergeNode><feMergeNode in="offset-1"></feMergeNode></feMerge></filter></defs><g filter="url(#editing-hover)"><g transform="translate(204.6232614517212, 101.94597625732422)"><path d="M4.74-26.56L4.74-26.56Q4.86-27.78 5.18-28.16L5.18-28.16L5.18-28.16Q5.50-28.54 6.34-28.74L6.34-28.74L6.34-28.74Q7.23-28.93 7.74-28.93L7.74-28.93L7.74-28.93Q8.32-28.93 8.51-28.61L8.51-28.61L8.51-28.61Q8.70-28.29 8.58-27.52L8.58-27.52L8.19-23.68L8.19-23.68Q7.36-15.74 6.91-12.35L6.91-12.35L6.34-7.62L6.34-7.62Q5.38 0 4.48 3.94L4.48 3.94L4.48 3.94Q3.58 7.87 1.44 10.30L1.44 10.30L1.44 10.30Q-0.70 12.74-4.74 12.67L-4.74 12.67L-4.74 12.67Q-7.81 12.35-9.98 10.50L-9.98 10.50L-9.98 10.50Q-10.62 10.05-10.62 9.60L-10.62 9.60L-10.62 9.60Q-10.62 9.28-10.27 8.80L-10.27 8.80L-10.27 8.80Q-9.92 8.32-9.86 8.19L-9.86 8.19L-9.86 8.19Q-9.15 7.30-8.64 7.30L-8.64 7.30L-8.64 7.30Q-8.26 7.30-7.74 7.68L-7.74 7.68L-7.74 7.68Q-6.14 8.83-4.10 9.02L-4.10 9.02L-4.10 9.02Q-1.79 9.15-0.51 7.14L-0.51 7.14L-0.51 7.14Q0.77 5.12 1.41 1.73L1.41 1.73L1.41 1.73Q2.05-1.66 2.94-8.58L2.94-8.58L3.26-11.07L3.26-11.07Q4.22-18.37 4.74-26.56L4.74-26.56ZM8.26-39.23L8.26-39.23Q9.15-39.23 9.66-38.66L9.66-38.66L9.66-38.66Q10.18-38.08 10.18-37.06L10.18-37.06L10.18-37.06Q10.18-35.20 9.28-33.98L9.28-33.98L9.28-33.98Q8.38-32.77 7.04-32.77L7.04-32.77L7.04-32.77Q6.14-32.77 5.63-33.38L5.63-33.38L5.63-33.38Q5.12-33.98 5.12-35.07L5.12-35.07L5.12-35.07Q5.12-36.86 6.02-38.05L6.02-38.05L6.02-38.05Q6.91-39.23 8.26-39.23L8.26-39.23ZM25.28-28.35L25.28-28.35Q26.18-28.35 26.50-28.16L26.50-28.16L26.50-28.16Q26.82-27.97 26.82-27.52L26.82-27.52L26.82-27.52Q26.82-27.01 26.69-26.62L26.69-26.62L26.69-26.62Q26.37-25.54 25.89-25.22L25.89-25.22L25.89-25.22Q25.41-24.90 24-24.90L24-24.90L19.90-24.90L19.90-24.90Q17.92-11.78 17.92-6.91L17.92-6.91L17.92-6.91Q17.92-5.06 18.37-4.03L18.37-4.03L18.37-4.03Q18.82-3.01 19.97-3.01L19.97-3.01L19.97-3.01Q21.38-3.01 22.91-4.29L22.91-4.29L22.91-4.29Q23.49-4.80 23.87-4.80L23.87-4.80L23.87-4.80Q24.38-4.80 25.09-3.90L25.09-3.90L25.09-3.90Q25.41-3.52 25.63-3.17L25.63-3.17L25.63-3.17Q25.86-2.82 25.86-2.56L25.86-2.56L25.86-2.56Q25.86-2.18 25.15-1.54L25.15-1.54L25.15-1.54Q22.46 0.64 19.52 0.64L19.52 0.64L19.52 0.64Q16.58 0.58 15.39-1.34L15.39-1.34L15.39-1.34Q14.21-3.26 14.14-6.53L14.14-6.53L14.14-6.53Q14.14-12.10 16.13-24.90L16.13-24.90L13.12-24.90L13.12-24.90Q11.97-24.90 11.52-25.09L11.52-25.09L11.52-25.09Q11.07-25.28 11.07-25.86L11.07-25.86L11.07-25.86Q11.07-26.24 11.26-26.88L11.26-26.88L11.26-26.88Q11.52-27.90 12-28.13L12-28.13L12-28.13Q12.48-28.35 13.95-28.35L13.95-28.35L16.70-28.35L18.50-38.78L18.50-38.78Q18.62-40.06 18.91-40.42L18.91-40.42L18.91-40.42Q19.20-40.77 20.03-40.96L20.03-40.96L20.03-40.96Q21.57-41.22 21.63-41.22L21.63-41.22L21.63-41.22Q22.21-41.22 22.34-40.93L22.34-40.93L22.34-40.93Q22.46-40.64 22.34-39.81L22.34-39.81L22.34-39.81Q21.38-34.18 20.42-28.35L20.42-28.35L25.28-28.35ZM60.10-28.35L60.10-28.35Q60.99-28.16 61.34-27.94L61.34-27.94L61.34-27.94Q61.70-27.71 61.70-27.20L61.70-27.20L61.70-27.20Q61.70-26.88 61.63-26.62L61.63-26.62L61.12-24.19L61.12-24.19Q59.97-18.69 59.26-15.78L59.26-15.78L59.26-15.78Q58.56-12.86 57.54-9.92L57.54-9.92L57.54-9.92Q56.19-5.89 54.72-3.52L54.72-3.52L54.72-3.52Q52.16 0.51 49.47 0.51L49.47 0.51L49.47 0.51Q47.74 0.51 46.85-1.95L46.85-1.95L46.85-1.95Q45.95-4.42 45.31-9.09L45.31-9.09L45.31-9.09Q45.12-10.43 44.74-15.49L44.74-15.49L44.74-15.49Q43.39-10.94 42.40-8.26L42.40-8.26L42.40-8.26Q41.41-5.57 40.06-3.46L40.06-3.46L40.06-3.46Q37.57 0.51 34.75 0.51L34.75 0.51L34.75 0.51Q32.96 0.51 32.03-2.02L32.03-2.02L32.03-2.02Q31.10-4.54 30.53-9.09L30.53-9.09L30.53-9.09Q30.08-12.48 29.95-16.10L29.95-16.10L29.95-16.10Q29.82-19.71 29.76-24.83L29.76-24.83L29.76-26.50L29.76-26.50Q29.76-27.39 30.05-27.78L30.05-27.78L30.05-27.78Q30.34-28.16 31.55-28.48L31.55-28.48L31.55-28.48Q32.70-28.74 32.90-28.74L32.90-28.74L32.90-28.74Q33.28-28.74 33.44-28.45L33.44-28.45L33.44-28.45Q33.60-28.16 33.60-27.52L33.60-27.52L33.60-25.09L33.60-25.09Q33.60-17.73 34.08-10.69L34.08-10.69L34.08-10.69Q34.56-3.65 35.52-3.65L35.52-3.65L35.52-3.65Q36.10-3.65 37.06-5.09L37.06-5.09L37.06-5.09Q38.02-6.53 39.04-8.83L39.04-8.83L39.04-8.83Q40.64-12.67 43.07-20.29L43.07-20.29L43.65-21.95L43.65-21.95Q43.97-22.91 44.32-23.30L44.32-23.30L44.32-23.30Q44.67-23.68 45.63-23.94L45.63-23.94L45.63-23.94Q46.02-24.06 46.53-24.06L46.53-24.06L46.53-24.06Q47.04-24.06 47.17-23.81L47.17-23.81L47.17-23.81Q47.30-23.55 47.30-23.07L47.30-23.07L47.30-23.07Q47.30-22.59 47.36-22.27L47.36-22.27L47.36-22.27Q47.74-16.90 48-13.95L48-13.95L48-13.95Q48.26-11.01 48.83-7.62L48.83-7.62L48.83-7.62Q49.41-3.65 50.24-3.65L50.24-3.65L50.24-3.65Q50.82-3.65 51.55-4.83L51.55-4.83L51.55-4.83Q52.29-6.02 52.93-7.55L52.93-7.55L52.93-7.55Q54.08-10.43 55.01-14.18L55.01-14.18L55.01-14.18Q55.94-17.92 57.15-23.74L57.15-23.74L57.92-27.52L57.92-27.52Q58.11-28.48 59.07-28.48L59.07-28.48L60.10-28.35ZM66.50-26.56L66.50-26.56Q66.62-27.78 66.94-28.16L66.94-28.16L66.94-28.16Q67.26-28.54 68.10-28.74L68.10-28.74L68.10-28.74Q68.99-28.93 69.50-28.93L69.50-28.93L69.50-28.93Q70.08-28.93 70.27-28.61L70.27-28.61L70.27-28.61Q70.46-28.29 70.34-27.52L70.34-27.52L69.95-23.68L69.95-23.68Q69.12-15.74 68.67-12.35L68.67-12.35L68.10-7.62L68.10-7.62Q67.14 0 66.24 3.94L66.24 3.94L66.24 3.94Q65.34 7.87 63.20 10.30L63.20 10.30L63.20 10.30Q61.06 12.74 57.02 12.67L57.02 12.67L57.02 12.67Q53.95 12.35 51.78 10.50L51.78 10.50L51.78 10.50Q51.14 10.05 51.14 9.60L51.14 9.60L51.14 9.60Q51.14 9.28 51.49 8.80L51.49 8.80L51.49 8.80Q51.84 8.32 51.90 8.19L51.90 8.19L51.90 8.19Q52.61 7.30 53.12 7.30L53.12 7.30L53.12 7.30Q53.50 7.30 54.02 7.68L54.02 7.68L54.02 7.68Q55.62 8.83 57.66 9.02L57.66 9.02L57.66 9.02Q59.97 9.15 61.25 7.14L61.25 7.14L61.25 7.14Q62.53 5.12 63.17 1.73L63.17 1.73L63.17 1.73Q63.81-1.66 64.70-8.58L64.70-8.58L65.02-11.07L65.02-11.07Q65.98-18.37 66.50-26.56L66.50-26.56ZM70.02-39.23L70.02-39.23Q70.91-39.23 71.42-38.66L71.42-38.66L71.42-38.66Q71.94-38.08 71.94-37.06L71.94-37.06L71.94-37.06Q71.94-35.20 71.04-33.98L71.04-33.98L71.04-33.98Q70.14-32.77 68.80-32.77L68.80-32.77L68.80-32.77Q67.90-32.77 67.39-33.38L67.39-33.38L67.39-33.38Q66.88-33.98 66.88-35.07L66.88-35.07L66.88-35.07Q66.88-36.86 67.78-38.05L67.78-38.05L67.78-38.05Q68.67-39.23 70.02-39.23L70.02-39.23ZM87.10-23.49L87.10-23.49Q85.63-25.47 83.20-25.47L83.20-25.47L83.20-25.47Q81.60-25.47 80.54-24.67L80.54-24.67L80.54-24.67Q79.49-23.87 79.49-22.14L79.49-22.14L79.49-22.14Q79.49-20.61 80.48-19.36L80.48-19.36L80.48-19.36Q81.47-18.11 83.90-16.32L83.90-16.32L83.90-16.32Q87.10-13.89 88.58-12.03L88.58-12.03L88.58-12.03Q90.05-10.18 90.05-7.49L90.05-7.49L90.05-7.49Q90.05-3.84 87.55-1.66L87.55-1.66L87.55-1.66Q85.06 0.51 81.41 0.51L81.41 0.51L81.41 0.51Q78.78 0.51 76.54-0.90L76.54-0.90L76.54-0.90Q74.30-2.30 72.83-4.61L72.83-4.61L72.83-4.61Q72.64-4.99 72.64-5.31L72.64-5.31L72.64-5.31Q72.64-6.02 73.86-6.78L73.86-6.78L73.86-6.78Q74.62-7.36 75.07-7.36L75.07-7.36L75.07-7.36Q75.52-7.36 75.97-6.66L75.97-6.66L75.97-6.66Q76.99-5.12 78.43-4.16L78.43-4.16L78.43-4.16Q79.87-3.20 81.54-3.20L81.54-3.20L81.54-3.20Q83.65-3.20 84.96-4.42L84.96-4.42L84.96-4.42Q86.27-5.63 86.27-7.36L86.27-7.36L86.27-7.36Q86.27-9.02 85.15-10.27L85.15-10.27L85.15-10.27Q84.03-11.52 81.86-13.18L81.86-13.18L80.58-14.21L80.58-14.21Q78.14-16.13 76.93-17.89L76.93-17.89L76.93-17.89Q75.71-19.65 75.71-22.21L75.71-22.21L75.71-22.21Q75.71-25.34 77.89-27.20L77.89-27.20L77.89-27.20Q80.06-29.06 83.33-29.06L83.33-29.06L83.33-29.06Q88.38-29.06 90.56-25.02L90.56-25.02L90.56-25.02Q90.75-24.64 90.75-24.38L90.75-24.38L90.75-24.38Q90.75-24 90.43-23.74L90.43-23.74L90.43-23.74Q90.11-23.49 89.28-23.04L89.28-23.04L89.28-23.04Q88.51-22.72 88.19-22.72L88.19-22.72L88.19-22.72Q87.62-22.72 87.10-23.49L87.10-23.49Z" fill="#85a2b6"></path></g></g><style>text {
  font-size: 64px;
  font-family: Arial Black;
  dominant-baseline: central;
  text-anchor: middle;
}</style></svg>